<?xml version="1.0" standalone="no"?>
<!DOCTYPE svg PUBLIC "-//W3C//DTD SVG 20010904//EN"
 "http://www.w3.org/TR/2001/REC-SVG-20010904/DTD/svg10.dtd">
<svg version="1.0" xmlns="http://www.w3.org/2000/svg"
 width="512.000000pt" height="512.000000pt" viewBox="0 0 512.000000 512.000000"
 preserveAspectRatio="xMidYMid meet">
<metadata>
Created by potrace 1.14, written by Peter Selinger 2001-2017
</metadata>
<g transform="translate(0.000000,512.000000) scale(0.100000,-0.100000)"
fill="#000000" stroke="none">
<path d="M2458 5020 c-26 -10 -62 -27 -80 -37 -18 -11 -109 -60 -203 -108 -93
-48 -174 -91 -180 -95 -5 -4 -82 -44 -170 -90 -88 -45 -182 -95 -210 -110 -27
-15 -102 -54 -165 -87 -63 -33 -160 -84 -215 -113 -55 -29 -152 -80 -215 -113
-63 -33 -137 -72 -165 -87 -27 -15 -117 -63 -200 -106 -82 -43 -163 -86 -179
-95 -76 -46 -87 -137 -24 -198 28 -27 67 -48 518 -284 63 -33 142 -74 175 -92
33 -18 103 -55 155 -82 294 -154 277 -144 272 -168 -4 -23 -5 -23 -220 -27
l-217 -3 -68 -34 c-85 -43 -169 -131 -215 -224 -30 -61 -82 -240 -97 -336 -3
-20 -12 -64 -20 -98 -8 -35 -17 -77 -20 -93 -3 -16 -12 -58 -20 -92 -8 -35
-16 -74 -19 -88 -2 -14 -18 -88 -35 -165 -35 -156 -39 -173 -46 -212 -3 -16
-10 -44 -15 -63 -5 -19 -11 -46 -14 -60 -6 -33 -22 -107 -47 -210 -12 -47 -23
-96 -25 -110 -3 -14 -7 -33 -10 -42 -3 -10 -7 -30 -10 -45 -3 -16 -10 -46 -16
-68 -5 -22 -12 -47 -13 -55 -2 -8 -20 -85 -40 -170 -21 -85 -39 -166 -42 -180
-2 -14 -8 -43 -13 -65 -15 -65 -5 -212 19 -283 126 -371 610 -470 917 -189 50
46 103 117 224 298 86 130 159 240 161 245 2 5 46 79 97 165 l92 155 699 0
c385 -1 701 -3 704 -6 3 -3 44 -72 92 -155 144 -248 390 -611 458 -680 87 -86
193 -148 293 -171 61 -13 229 -13 283 2 170 45 305 170 362 334 31 90 32 258
1 380 -21 86 -81 333 -87 360 -2 8 -9 38 -15 65 -6 28 -14 61 -16 75 -3 14
-11 50 -19 80 -8 30 -17 71 -20 90 -3 19 -17 80 -30 135 -13 55 -26 111 -29
125 -4 23 -53 245 -61 280 -2 8 -9 38 -15 65 -14 58 -18 79 -26 120 -3 17 -7
35 -8 40 -2 6 -6 28 -10 50 -4 22 -12 54 -16 70 -5 17 -11 44 -14 60 -31 178
-77 356 -109 425 -34 74 -96 156 -145 191 -82 60 -74 36 -74 228 0 95 4 177 9
181 8 7 45 27 328 176 72 37 162 84 200 105 88 46 119 86 112 147 -8 74 -11
76 -417 290 -47 24 -125 66 -175 92 -49 26 -135 71 -190 100 -55 29 -145 76
-200 105 -55 29 -154 81 -220 115 -66 35 -142 75 -170 90 -27 15 -106 57 -175
93 -69 36 -181 95 -250 131 -237 126 -268 138 -339 141 -45 2 -81 -3 -113 -15z
m1439 -1775 l-1 -115 -174 0 -173 0 3 26 c2 22 19 35 98 77 52 27 127 67 165
87 39 21 73 39 77 39 3 1 6 -51 5 -114z"/>
</g>
</svg>
